<svg width="19" height="22" viewBox="0 0 19 22" fill="none" xmlns="http://www.w3.org/2000/svg">
<path d="M9.1897 12C10.8466 12 12.1897 10.6569 12.1897 9C12.1897 7.34315 10.8466 6 9.1897 6C7.53284 6 6.1897 7.34315 6.1897 9C6.1897 10.6569 7.53284 12 9.1897 12Z" stroke="#2B5EAA" stroke-width="2" stroke-linecap="round" stroke-linejoin="round"/>
<path d="M9.1897 1C7.06797 1 5.03313 1.84285 3.53284 3.34315C2.03255 4.84344 1.1897 6.87827 1.1897 9C1.1897 10.892 1.5917 12.13 2.6897 13.5L9.1897 21L15.6897 13.5C16.7877 12.13 17.1897 10.892 17.1897 9C17.1897 6.87827 16.3468 4.84344 14.8466 3.34315C13.3463 1.84285 11.3114 1 9.1897 1Z" stroke="#2B5EAA" stroke-width="2" stroke-linecap="round" stroke-linejoin="round"/>
</svg>
