<svg width="19" height="19" viewBox="0 0 19 19" fill="none" xmlns="http://www.w3.org/2000/svg">
<path d="M11.0355 16.2689H16.0516V2.03361H2.00645V16.2689H9.02902V11.1849H7.02257V9.15126H9.02902V7.46946C9.02902 6.10999 9.16947 5.61684 9.43031 5.11962C9.68725 4.62768 10.0844 4.22553 10.57 3.96555C10.9532 3.7571 11.4297 3.63203 12.2624 3.57814C12.5925 3.55679 13.0198 3.58323 13.5445 3.65949V5.59142H13.0419C12.122 5.59142 11.7417 5.63514 11.515 5.75818C11.3797 5.8287 11.2696 5.94033 11.2 6.07745C11.0796 6.30725 11.0355 6.53502 11.0355 7.46845V9.15126H13.5435L13.0419 11.1849H11.0355V16.2689ZM1.00322 0H17.0548C17.3209 0 17.5761 0.107128 17.7642 0.297816C17.9523 0.488504 18.058 0.747133 18.058 1.01681V17.2857C18.058 17.5554 17.9523 17.814 17.7642 18.0047C17.5761 18.1954 17.3209 18.3025 17.0548 18.3025H1.00322C0.737153 18.3025 0.481979 18.1954 0.293838 18.0047C0.105697 17.814 0 17.5554 0 17.2857V1.01681C0 0.747133 0.105697 0.488504 0.293838 0.297816C0.481979 0.107128 0.737153 0 1.00322 0Z" fill="#C8C8C8"/>
</svg>
