<svg width="19" height="19" viewBox="0 0 19 19" fill="none" xmlns="http://www.w3.org/2000/svg">
<path d="M9.02594 4.44531C7.79562 4.44531 6.6157 4.94067 5.74573 5.82241C4.87577 6.70416 4.38702 7.90005 4.38702 9.14703C4.38702 10.394 4.87577 11.5899 5.74573 12.4716C6.6157 13.3534 7.79562 13.8487 9.02594 13.8487C10.2563 13.8487 11.4362 13.3534 12.3061 12.4716C13.1761 11.5899 13.6649 10.394 13.6649 9.14703C13.6649 7.90005 13.1761 6.70416 12.3061 5.82241C11.4362 4.94067 10.2563 4.44531 9.02594 4.44531ZM9.02594 12.2005C8.22666 12.2005 7.46012 11.8787 6.89494 11.3059C6.32976 10.733 6.01225 9.95611 6.01225 9.14601C6.01225 8.33591 6.32976 7.55899 6.89494 6.98616C7.46012 6.41333 8.22666 6.09152 9.02594 6.09152C9.82522 6.09152 10.5918 6.41333 11.1569 6.98616C11.7221 7.55899 12.0396 8.33591 12.0396 9.14601C12.0396 9.95611 11.7221 10.733 11.1569 11.3059C10.5918 11.8787 9.82522 12.2005 9.02594 12.2005Z" fill="#C8C8C8"/>
<path d="M13.8485 5.36899C14.4458 5.36899 14.93 4.87824 14.93 4.27287C14.93 3.6675 14.4458 3.17676 13.8485 3.17676C13.2512 3.17676 12.767 3.6675 12.767 4.27287C12.767 4.87824 13.2512 5.36899 13.8485 5.36899Z" fill="#C8C8C8"/>
<path d="M17.5875 3.1582C17.3553 2.55033 17.0003 1.99831 16.5455 1.53747C16.0906 1.07663 15.5459 0.717124 14.946 0.481966C14.2441 0.214909 13.5026 0.0705065 12.753 0.0549074C11.7869 0.0122016 11.4809 0 9.03101 0C6.58114 0 6.26713 -1.02273e-07 5.30906 0.0549074C4.56004 0.0697089 3.81903 0.214141 3.11802 0.481966C2.51803 0.71685 1.9731 1.07626 1.51821 1.53713C1.06332 1.99801 0.708505 2.55017 0.476531 3.1582C0.212989 3.86957 0.0708421 4.62122 0.0561805 5.38094C0.0130419 6.35911 0 6.66923 0 9.15329C0 11.6363 -7.47459e-09 11.9526 0.0561805 12.9256C0.0712288 13.6862 0.212683 14.4366 0.476531 15.1494C0.709156 15.7572 1.06432 16.3091 1.51932 16.77C1.97432 17.2308 2.51916 17.5903 3.11902 17.8256C3.8187 18.1034 4.56002 18.2582 5.31106 18.2832C6.27717 18.3259 6.58315 18.3391 9.03302 18.3391C11.4829 18.3391 11.7969 18.3391 12.755 18.2832C13.5045 18.2677 14.246 18.1237 14.948 17.8572C15.5477 17.6214 16.0923 17.2616 16.5471 16.8007C17.0019 16.3397 17.357 15.7877 17.5895 15.1799C17.8534 14.4681 17.9948 13.7177 18.0099 12.9572C18.053 11.979 18.066 11.6689 18.066 9.18481C18.066 6.70075 18.066 6.38554 18.0099 5.41246C17.9982 4.642 17.8553 3.87937 17.5875 3.1582ZM16.3656 12.8504C16.3591 13.4364 16.2536 14.0169 16.0536 14.5668C15.9029 14.9622 15.6723 15.3212 15.3765 15.6209C15.0807 15.9205 14.7263 16.1541 14.3361 16.3065C13.7996 16.5083 13.2329 16.6153 12.6607 16.6227C11.7076 16.6675 11.4388 16.6787 8.9949 16.6787C6.54904 16.6787 6.29924 16.6787 5.32812 16.6227C4.75621 16.6157 4.18979 16.5087 3.65374 16.3065C3.26217 16.155 2.90634 15.9219 2.60927 15.6222C2.31221 15.3225 2.08052 14.9629 1.9292 14.5668C1.73201 14.0228 1.62654 13.4491 1.6172 12.8697C1.57406 11.9038 1.56402 11.6312 1.56402 9.15431C1.56402 6.67635 1.56402 6.42317 1.6172 5.43788C1.62368 4.85222 1.72921 4.27203 1.9292 3.72253C2.23518 2.92027 2.8622 2.28883 3.65374 1.98176C4.19005 1.78057 4.75631 1.67363 5.32812 1.66553C6.28218 1.62181 6.55004 1.6096 8.9949 1.6096C11.4398 1.6096 11.6906 1.6096 12.6607 1.66553C13.2329 1.67251 13.7997 1.77948 14.3361 1.98176C14.7262 2.13455 15.0806 2.36835 15.3764 2.66813C15.6721 2.96791 15.9028 3.32706 16.0536 3.72253C16.2508 4.26647 16.3562 4.84016 16.3656 5.41958C16.4087 6.38656 16.4198 6.65805 16.4198 9.136C16.4198 11.6129 16.4198 11.8793 16.3766 12.8514H16.3656V12.8504Z" fill="#C8C8C8"/>
</svg>
