<svg width="44" height="55" viewBox="0 0 44 55" fill="none" xmlns="http://www.w3.org/2000/svg">
<path d="M27.5 0H5.5C4.04131 0 2.64236 0.579462 1.61091 1.61091C0.579462 2.64236 0 4.04131 0 5.5V49.5C0 50.9587 0.579462 52.3576 1.61091 53.3891C2.64236 54.4205 4.04131 55 5.5 55H38.5C39.9587 55 41.3576 54.4205 42.3891 53.3891C43.4205 52.3576 44 50.9587 44 49.5V16.5L27.5 0ZM15.1195 39.0225C14.2698 39.82 13.0157 40.1775 11.5555 40.1775C11.2724 40.1806 10.9894 40.164 10.7085 40.128V44.0495H8.25V33.2255C9.3595 33.06 10.4806 32.9846 11.6022 33C13.134 33 14.223 33.2915 14.9573 33.8773C15.6558 34.4328 16.1287 35.343 16.1287 36.4155C16.126 37.4935 15.7685 38.4038 15.1195 39.0225ZM25.5888 42.7487C24.4338 43.7085 22.6765 44.165 20.5288 44.165C19.2418 44.165 18.3315 44.0825 17.7127 44V33.2282C18.8227 33.0663 19.9434 32.9899 21.065 33C23.1467 33 24.4998 33.374 25.5557 34.1715C26.697 35.0185 27.412 36.3688 27.412 38.3075C27.412 40.4058 26.6448 41.855 25.5888 42.7487ZM35.75 35.1175H31.537V37.6227H35.475V39.6413H31.537V44.0522H29.0455V33.0825H35.75V35.1175ZM27.5 19.25H24.75V5.5L38.5 19.25H27.5Z" fill="#AA2B2B"/>
</svg>
