<svg width="44" height="55" viewBox="0 0 44 55" fill="none" xmlns="http://www.w3.org/2000/svg">
<path d="M12.0184 35C11.5147 35 11.1752 35.0471 11 35.0942V38.1756C11.2081 38.2226 11.4681 38.2357 11.8267 38.2357C13.138 38.2357 13.9456 37.6027 13.9456 36.5328C13.9456 35.5755 13.2503 35 12.0184 35ZM21.5642 35.0314C21.0167 35.0314 20.6608 35.0785 20.45 35.1256V41.9528C20.6608 41.9998 21.0003 41.9998 21.3069 41.9998C23.5435 42.0155 24.9999 40.8384 24.9999 38.3482C25.0163 36.1771 23.6886 35.0314 21.5642 35.0314Z" fill="#AA2B2B"/>
<path d="M27.5 0H5.5C4.04131 0 2.64236 0.579462 1.61091 1.61091C0.579462 2.64236 0 4.04131 0 5.5V49.5C0 50.9587 0.579462 52.3576 1.61091 53.3891C2.64236 54.4205 4.04131 55 5.5 55H38.5C39.9587 55 41.3576 54.4205 42.3891 53.3891C43.4205 52.3576 44 50.9587 44 49.5V16.5L27.5 0ZM15.1195 39.0225C14.2698 39.82 13.0157 40.1775 11.5555 40.1775C11.2724 40.1806 10.9894 40.164 10.7085 40.128V44.0495H8.25V33.2255C9.3595 33.06 10.4806 32.9846 11.6022 33C13.134 33 14.223 33.2915 14.9573 33.8773C15.6558 34.4328 16.1287 35.343 16.1287 36.4155C16.126 37.4935 15.7685 38.4038 15.1195 39.0225ZM25.5888 42.7487C24.4338 43.7085 22.6765 44.165 20.5288 44.165C19.2418 44.165 18.3315 44.0825 17.7127 44V33.2282C18.8227 33.0663 19.9434 32.9899 21.065 33C23.1467 33 24.4998 33.374 25.5557 34.1715C26.697 35.0185 27.412 36.3688 27.412 38.3075C27.412 40.4058 26.6448 41.855 25.5888 42.7487ZM35.75 35.1175H31.537V37.6227H35.475V39.6413H31.537V44.0522H29.0455V33.0825H35.75V35.1175ZM27.5 19.25H24.75V5.5L38.5 19.25H27.5Z" fill="#AA2B2B"/>
</svg>
