<svg width="20" height="19" viewBox="0 0 20 19" fill="none" xmlns="http://www.w3.org/2000/svg">
<path d="M9.24769 4.91007L6.3814 1.86532C6.05097 1.51445 5.44517 1.51601 5.06136 1.87L2.70427 4.04304C2.00274 4.68941 1.80194 5.64923 2.20778 6.4188C4.63232 11.0385 8.68091 14.7695 13.6975 17.0072C14.5329 17.3807 15.5751 17.1959 16.2766 16.5495L18.6557 14.3562C19.0412 14.0014 19.0421 13.4408 18.6574 13.1367L15.3361 10.513C14.9888 10.2386 14.449 10.2744 14.1008 10.5957L12.9452 11.6608C12.886 11.7178 12.8081 11.7554 12.7235 11.7678C12.6388 11.7802 12.5521 11.7667 12.4766 11.7294C10.5876 10.7283 9.02062 9.28439 7.93528 7.54469C7.89464 7.4751 7.87992 7.39517 7.89339 7.31714C7.90685 7.23911 7.94776 7.16731 8.00984 7.11273L9.16212 6.05156C9.51119 5.72876 9.54932 5.23053 9.24769 4.91007Z" stroke="#2B5EAA" stroke-width="2" stroke-linecap="round" stroke-linejoin="round"/>
</svg>
