<svg width="20" height="18" viewBox="0 0 20 18" fill="none" xmlns="http://www.w3.org/2000/svg">
<path d="M9.24769 4.30674L6.3814 1.26199C6.05097 0.911119 5.44517 0.912678 5.06136 1.26666L2.70427 3.4397C2.00274 4.08608 1.80194 5.0459 2.20778 5.81547C4.63232 10.4352 8.68091 14.1662 13.6975 16.4039C14.5329 16.7773 15.5751 16.5926 16.2766 15.9462L18.6557 13.7529C19.0412 13.3981 19.0421 12.8375 18.6574 12.5334L15.3361 9.9097C14.9888 9.63524 14.449 9.67111 14.1008 9.99235L12.9452 11.0574C12.886 11.1145 12.8081 11.1521 12.7235 11.1645C12.6388 11.1769 12.5521 11.1634 12.4766 11.126C10.5876 10.125 9.02062 8.68106 7.93528 6.94136C7.89464 6.87177 7.87992 6.79183 7.89339 6.71381C7.90685 6.63578 7.94776 6.56397 8.00984 6.5094L9.16212 5.44822C9.51119 5.12543 9.54932 4.62641 9.24769 4.30596V4.30674Z" stroke="#C8C8C8" stroke-width="2" stroke-linecap="round" stroke-linejoin="round"/>
</svg>
