<svg width="99" height="99" viewBox="0 0 99 99" fill="none" xmlns="http://www.w3.org/2000/svg">
<path d="M81.0858 1.41422C81.7525 0.74755 82.0858 0.414217 82.5 0.414217C82.9142 0.414217 83.2475 0.74755 83.9142 1.41422L97.5858 15.0858C98.2525 15.7525 98.5858 16.0858 98.5858 16.5C98.5858 16.9142 98.2525 17.2475 97.5858 17.9142L17.9142 97.5858C17.2475 98.2525 16.9142 98.5858 16.5 98.5858C16.0858 98.5858 15.7525 98.2525 15.0858 97.5858L1.41421 83.9142C0.747547 83.2475 0.414213 82.9142 0.414213 82.5C0.414214 82.0858 0.747547 81.7524 1.41421 81.0858L81.0858 1.41422Z" fill="#AA2B2B"/>
<path d="M97.5858 81.0858C98.2525 81.7524 98.5858 82.0858 98.5858 82.5C98.5858 82.9142 98.2525 83.2475 97.5858 83.9142L83.9142 97.5858C83.2475 98.2525 82.9142 98.5858 82.5 98.5858C82.0858 98.5858 81.7525 98.2525 81.0858 97.5858L1.41422 17.9142C0.747551 17.2475 0.414217 16.9142 0.414218 16.5C0.414218 16.0858 0.747551 15.7525 1.41422 15.0858L15.0858 1.41421C15.7525 0.747547 16.0858 0.414214 16.5 0.414214C16.9142 0.414214 17.2476 0.747547 17.9142 1.41421L97.5858 81.0858Z" fill="#AA2B2B"/>
</svg>
