<svg width="21" height="20" viewBox="0 0 21 20" fill="none" xmlns="http://www.w3.org/2000/svg">
<path d="M10.1897 0C4.6757 0 0.189697 4.486 0.189697 10C0.189697 15.514 4.6757 20 10.1897 20C15.7037 20 20.1897 15.514 20.1897 10C20.1897 4.486 15.7037 0 10.1897 0ZM10.1897 18C5.7787 18 2.1897 14.411 2.1897 10C2.1897 5.589 5.7787 2 10.1897 2C14.6007 2 18.1897 5.589 18.1897 10C18.1897 14.411 14.6007 18 10.1897 18Z" fill="#2B5EAA"/>
<path d="M11.1897 5H9.1897V10.414L12.4827 13.707L13.8967 12.293L11.1897 9.586V5Z" fill="#2B5EAA"/>
</svg>
